<?xml version="1.0" encoding="UTF-8" standalone="no"?>
<!-- Created with Inkscape (http://www.inkscape.org/) -->

<svg
   width="512"
   height="512"
   viewBox="0 0 135.46666 135.46667"
   version="1.1"
   id="svg5"
   xml:space="preserve"
   inkscape:version="1.2.2 (b0a8486541, 2022-12-01)"
   sodipodi:docname="one-time-secret.svg"
   xmlns:inkscape="http://www.inkscape.org/namespaces/inkscape"
   xmlns:sodipodi="http://sodipodi.sourceforge.net/DTD/sodipodi-0.dtd"
   xmlns="http://www.w3.org/2000/svg"
   xmlns:svg="http://www.w3.org/2000/svg"><sodipodi:namedview
     id="namedview7"
     pagecolor="#ffffff"
     bordercolor="#000000"
     borderopacity="0.25"
     inkscape:showpageshadow="2"
     inkscape:pageopacity="0.0"
     inkscape:pagecheckerboard="0"
     inkscape:deskcolor="#d1d1d1"
     inkscape:document-units="mm"
     showgrid="false"
     inkscape:zoom="0.71389501"
     inkscape:cx="350.89193"
     inkscape:cy="444.04289"
     inkscape:window-width="1693"
     inkscape:window-height="748"
     inkscape:window-x="171"
     inkscape:window-y="111"
     inkscape:window-maximized="0"
     inkscape:current-layer="layer1" /><defs
     id="defs2" /><g
     inkscape:label="Capa 1"
     inkscape:groupmode="layer"
     id="layer1"><g
       id="g1282"
       transform="matrix(0.80109663,0,0,0.79792193,117.61495,-46.421546)"><rect
         style="fill:#db5230;fill-opacity:1;stroke:none;stroke-width:0.370417;stop-color:#000000"
         id="rect657"
         width="169.10153"
         height="169.77434"
         x="-146.81743"
         y="58.178055" /><path
         style="fill:#ffffff;fill-opacity:1;stroke:none;stroke-width:0.370417;stop-color:#000000"
         d="m -48.652813,120.21566 1.528083,10.35733 14.528887,-1.65472 -0.784738,-18.98734 c -9.344564,-8.71309 -26.024415,-14.858726 -48.298438,-5.03998 -14.614102,8.44717 -13.661496,18.7696 -12.328951,29.1465 2.397794,10.84057 13.266385,13.61308 20.388061,15.79096 l 11.622963,2.33461 c 0,0 15.485246,2.65219 14.086047,13.07588 -1.399199,10.42369 -15.090763,10.68428 -15.090763,10.68428 -5.375756,0.60201 -9.864855,-1.68852 -12.373879,-3.10231 l -2.39858,-1.09399 0.119626,-10.53888 -14.485035,-1.51498 -2.702459,21.96005 2.176736,1.5141 c 4.338003,2.11503 5.707175,7.39021 31.359484,7.17481 12.528924,-0.0245 29.204107,-4.74849 32.381406,-23.08307 3.000278,-22.63009 -10.681924,-27.51111 -22.575282,-29.7238 l -10.801117,-2.61677 c -6.83034,-1.59549 -13.420803,-3.4082 -11.663502,-12.77994 1.749113,-5.61095 10.542569,-7.55842 16.987371,-5.43786 z"
         id="path603"
         sodipodi:nodetypes="cccccccczcccccccccccccc" /></g></g></svg>
